<mxfile host="app.diagrams.net" modified="2023-04-07T02:40:12.582Z" agent="Mozilla/5.0 (Windows NT 10.0; Win64; x64; rv:109.0) Gecko/20100101 Firefox/111.0" etag="EXd9PUlUxQh6BleXx-Jy" version="21.1.2" type="device">
  <diagram name="Page-1" id="58cdce13-f638-feb5-8d6f-7d28b1aa9fa0">
    <mxGraphModel dx="1157" dy="559" grid="1" gridSize="10" guides="1" tooltips="1" connect="1" arrows="1" fold="1" page="1" pageScale="1" pageWidth="1100" pageHeight="850" background="none" math="0" shadow="0">
      <root>
        <mxCell id="0" />
        <mxCell id="1" parent="0" />
        <mxCell id="_RIdNQpKpIPFGBzSEn9j-18" value="" style="shape=folder;fontStyle=1;spacingTop=10;tabWidth=40;tabHeight=14;tabPosition=left;html=1;whiteSpace=wrap;movable=1;resizable=1;rotatable=1;deletable=1;editable=1;locked=0;connectable=1;" vertex="1" parent="1">
          <mxGeometry x="34.39" y="381.8" width="1425.61" height="578.2" as="geometry" />
        </mxCell>
        <mxCell id="_RIdNQpKpIPFGBzSEn9j-19" value="&lt;div&gt;game&lt;br&gt;&lt;/div&gt;" style="text;html=1;strokeColor=none;fillColor=none;align=center;verticalAlign=middle;whiteSpace=wrap;rounded=0;" vertex="1" parent="1">
          <mxGeometry x="12" y="354.1565217391304" width="86.34146341463415" height="65.4" as="geometry" />
        </mxCell>
        <mxCell id="_RIdNQpKpIPFGBzSEn9j-15" value="&lt;blockquote&gt;«interface»&lt;br&gt;&lt;div&gt;&lt;b&gt;Behaviour&lt;/b&gt;&lt;/div&gt;&lt;/blockquote&gt;" style="html=1;whiteSpace=wrap;" vertex="1" parent="1">
          <mxGeometry x="480" y="414.5" width="120" height="49" as="geometry" />
        </mxCell>
        <mxCell id="_RIdNQpKpIPFGBzSEn9j-21" value="&lt;p style=&quot;margin:0px;margin-top:4px;text-align:center;&quot;&gt;&lt;b&gt;&amp;lt;&amp;lt;abstract&amp;gt;&amp;gt;&lt;/b&gt;&lt;/p&gt;&lt;p style=&quot;margin:0px;margin-top:4px;text-align:center;&quot;&gt;&lt;b&gt;Enemy&lt;br&gt;&lt;/b&gt;&lt;/p&gt;&lt;hr size=&quot;1&quot;&gt;" style="verticalAlign=top;align=left;overflow=fill;fontSize=12;fontFamily=Helvetica;html=1;whiteSpace=wrap;" vertex="1" parent="1">
          <mxGeometry x="252.2" y="409" width="129.8" height="60" as="geometry" />
        </mxCell>
        <mxCell id="_RIdNQpKpIPFGBzSEn9j-24" value="" style="endArrow=open;endFill=1;endSize=12;html=1;rounded=0;entryX=0;entryY=0.5;entryDx=0;entryDy=0;exitX=1;exitY=0.5;exitDx=0;exitDy=0;" edge="1" parent="1" source="_RIdNQpKpIPFGBzSEn9j-21" target="_RIdNQpKpIPFGBzSEn9j-15">
          <mxGeometry width="160" relative="1" as="geometry">
            <mxPoint x="270" y="470" as="sourcePoint" />
            <mxPoint x="430" y="470" as="targetPoint" />
          </mxGeometry>
        </mxCell>
        <mxCell id="_RIdNQpKpIPFGBzSEn9j-25" value="1" style="text;html=1;strokeColor=none;fillColor=none;align=center;verticalAlign=middle;whiteSpace=wrap;rounded=0;" vertex="1" parent="1">
          <mxGeometry x="361" y="433" width="60" height="30" as="geometry" />
        </mxCell>
        <mxCell id="_RIdNQpKpIPFGBzSEn9j-26" value="*" style="text;html=1;strokeColor=none;fillColor=none;align=center;verticalAlign=middle;whiteSpace=wrap;rounded=0;" vertex="1" parent="1">
          <mxGeometry x="440" y="439" width="60" height="30" as="geometry" />
        </mxCell>
        <mxCell id="_RIdNQpKpIPFGBzSEn9j-27" value="acts" style="text;html=1;strokeColor=none;fillColor=none;align=center;verticalAlign=middle;whiteSpace=wrap;rounded=0;" vertex="1" parent="1">
          <mxGeometry x="400" y="432" width="60" height="30" as="geometry" />
        </mxCell>
        <mxCell id="_RIdNQpKpIPFGBzSEn9j-155" style="rounded=0;orthogonalLoop=1;jettySize=auto;html=1;exitX=0.75;exitY=0;exitDx=0;exitDy=0;entryX=0;entryY=0.75;entryDx=0;entryDy=0;endSize=12;endArrow=open;endFill=0;" edge="1" parent="1" source="_RIdNQpKpIPFGBzSEn9j-29" target="_RIdNQpKpIPFGBzSEn9j-153">
          <mxGeometry relative="1" as="geometry">
            <Array as="points">
              <mxPoint x="290" y="580" />
              <mxPoint x="870" y="580" />
            </Array>
          </mxGeometry>
        </mxCell>
        <mxCell id="_RIdNQpKpIPFGBzSEn9j-29" value="&lt;p style=&quot;margin:0px;margin-top:4px;text-align:center;&quot;&gt;&lt;b&gt;GiantCrab&lt;/b&gt;&lt;/p&gt;&lt;hr size=&quot;1&quot;&gt;&lt;div&gt;-- Giant crab enemy class&lt;br&gt;&lt;/div&gt;" style="verticalAlign=top;align=left;overflow=fill;fontSize=12;fontFamily=Helvetica;html=1;whiteSpace=wrap;" vertex="1" parent="1">
          <mxGeometry x="60" y="633.37" width="160" height="60" as="geometry" />
        </mxCell>
        <mxCell id="_RIdNQpKpIPFGBzSEn9j-30" value="&lt;p style=&quot;margin:0px;margin-top:4px;text-align:center;&quot;&gt;&lt;b&gt;LoneWolf&lt;/b&gt;&lt;/p&gt;&lt;hr size=&quot;1&quot;&gt;&lt;div&gt;-- Lone Wolf enemy class&lt;br&gt;&lt;/div&gt;" style="verticalAlign=top;align=left;overflow=fill;fontSize=12;fontFamily=Helvetica;html=1;whiteSpace=wrap;" vertex="1" parent="1">
          <mxGeometry x="420" y="633.37" width="160" height="60" as="geometry" />
        </mxCell>
        <mxCell id="_RIdNQpKpIPFGBzSEn9j-3" value="&lt;p style=&quot;margin:0px;margin-top:4px;text-align:center;&quot;&gt;&lt;b&gt;HeavySkeletalSwordsman&lt;br&gt;&lt;/b&gt;&lt;/p&gt;&lt;hr size=&quot;1&quot;&gt;&lt;div&gt;-- Heavy Skeletal Swordsman enemy class&lt;br&gt;&lt;/div&gt;" style="verticalAlign=top;align=left;overflow=fill;fontSize=12;fontFamily=Helvetica;html=1;whiteSpace=wrap;" vertex="1" parent="1">
          <mxGeometry x="238" y="633.37" width="160" height="60" as="geometry" />
        </mxCell>
        <mxCell id="_RIdNQpKpIPFGBzSEn9j-5" value="" style="endArrow=block;endSize=12;endFill=0;html=1;rounded=0;exitX=0.5;exitY=0;exitDx=0;exitDy=0;entryX=0.5;entryY=1;entryDx=0;entryDy=0;" edge="1" parent="1" source="_RIdNQpKpIPFGBzSEn9j-3" target="_RIdNQpKpIPFGBzSEn9j-21">
          <mxGeometry width="160" relative="1" as="geometry">
            <mxPoint x="267" y="480" as="sourcePoint" />
            <mxPoint x="507" y="490" as="targetPoint" />
          </mxGeometry>
        </mxCell>
        <mxCell id="_RIdNQpKpIPFGBzSEn9j-28" value="-- base class for enemies" style="edgeLabel;html=1;align=center;verticalAlign=middle;resizable=0;points=[];" vertex="1" connectable="0" parent="_RIdNQpKpIPFGBzSEn9j-5">
          <mxGeometry x="1" y="-8" relative="1" as="geometry">
            <mxPoint x="-7" y="-9" as="offset" />
          </mxGeometry>
        </mxCell>
        <mxCell id="_RIdNQpKpIPFGBzSEn9j-85" value="" style="group" vertex="1" connectable="0" parent="1">
          <mxGeometry x="140.2" y="606.87" width="360" as="geometry" />
        </mxCell>
        <mxCell id="_RIdNQpKpIPFGBzSEn9j-11" style="rounded=0;orthogonalLoop=1;jettySize=auto;html=1;exitX=0.5;exitY=0;exitDx=0;exitDy=0;endArrow=none;endFill=0;" edge="1" parent="_RIdNQpKpIPFGBzSEn9j-85">
          <mxGeometry relative="1" as="geometry">
            <mxPoint x="180" as="targetPoint" />
            <mxPoint x="360" y="27" as="sourcePoint" />
            <Array as="points">
              <mxPoint x="360" />
            </Array>
          </mxGeometry>
        </mxCell>
        <mxCell id="_RIdNQpKpIPFGBzSEn9j-23" style="rounded=0;orthogonalLoop=1;jettySize=auto;html=1;exitX=0.5;exitY=0;exitDx=0;exitDy=0;endArrow=none;endFill=0;" edge="1" parent="_RIdNQpKpIPFGBzSEn9j-85">
          <mxGeometry relative="1" as="geometry">
            <mxPoint x="180" as="targetPoint" />
            <mxPoint y="27" as="sourcePoint" />
            <Array as="points">
              <mxPoint />
            </Array>
          </mxGeometry>
        </mxCell>
        <mxCell id="_RIdNQpKpIPFGBzSEn9j-91" value="1" style="text;html=1;strokeColor=none;fillColor=none;align=center;verticalAlign=middle;whiteSpace=wrap;rounded=0;" vertex="1" parent="1">
          <mxGeometry x="242" y="603.87" width="60" height="30" as="geometry" />
        </mxCell>
        <mxCell id="_RIdNQpKpIPFGBzSEn9j-94" value="wields" style="text;html=1;strokeColor=none;fillColor=none;align=center;verticalAlign=middle;whiteSpace=wrap;rounded=0;" vertex="1" parent="1">
          <mxGeometry x="203" y="609.87" width="60" height="30" as="geometry" />
        </mxCell>
        <mxCell id="_RIdNQpKpIPFGBzSEn9j-87" value="" style="group" vertex="1" connectable="0" parent="1">
          <mxGeometry x="20" y="30" width="750" height="340" as="geometry" />
        </mxCell>
        <mxCell id="_RIdNQpKpIPFGBzSEn9j-12" value="" style="shape=folder;fontStyle=1;spacingTop=10;tabWidth=40;tabHeight=14;tabPosition=left;html=1;whiteSpace=wrap;" vertex="1" parent="_RIdNQpKpIPFGBzSEn9j-87">
          <mxGeometry x="10" y="7.5555555555555545" width="740" height="332.4444444444444" as="geometry" />
        </mxCell>
        <mxCell id="_RIdNQpKpIPFGBzSEn9j-13" value="&lt;div&gt;engine&lt;/div&gt;" style="text;html=1;strokeColor=none;fillColor=none;align=center;verticalAlign=middle;whiteSpace=wrap;rounded=0;" vertex="1" parent="_RIdNQpKpIPFGBzSEn9j-87">
          <mxGeometry width="60" height="30.222222222222218" as="geometry" />
        </mxCell>
        <mxCell id="_RIdNQpKpIPFGBzSEn9j-81" value="" style="group" vertex="1" connectable="0" parent="_RIdNQpKpIPFGBzSEn9j-87">
          <mxGeometry x="550" y="211.55555555555554" width="180" height="115.85185185185183" as="geometry" />
        </mxCell>
        <mxCell id="_RIdNQpKpIPFGBzSEn9j-82" value="" style="shape=folder;fontStyle=1;spacingTop=10;tabWidth=65;tabHeight=20;tabPosition=left;html=1;whiteSpace=wrap;" vertex="1" parent="_RIdNQpKpIPFGBzSEn9j-81">
          <mxGeometry y="5.037037037037036" width="180" height="110.81481481481481" as="geometry" />
        </mxCell>
        <mxCell id="_RIdNQpKpIPFGBzSEn9j-83" value="positions" style="text;html=1;strokeColor=none;fillColor=none;align=center;verticalAlign=middle;whiteSpace=wrap;rounded=0;" vertex="1" parent="_RIdNQpKpIPFGBzSEn9j-81">
          <mxGeometry x="4" width="60" height="30.222222222222218" as="geometry" />
        </mxCell>
        <mxCell id="_RIdNQpKpIPFGBzSEn9j-84" value="&lt;p style=&quot;margin:0px;margin-top:4px;text-align:center;&quot;&gt;&lt;b&gt;&amp;lt;&amp;lt;abstract&amp;gt;&amp;gt;&lt;/b&gt;&lt;/p&gt;&lt;p style=&quot;margin:0px;margin-top:4px;text-align:center;&quot;&gt;&lt;b&gt;Ground&lt;br&gt;&lt;/b&gt;&lt;/p&gt;&lt;hr size=&quot;1&quot;&gt;" style="verticalAlign=top;align=left;overflow=fill;fontSize=12;fontFamily=Helvetica;html=1;whiteSpace=wrap;" vertex="1" parent="_RIdNQpKpIPFGBzSEn9j-81">
          <mxGeometry x="20" y="43.318518518518516" width="140" height="60.444444444444436" as="geometry" />
        </mxCell>
        <mxCell id="_RIdNQpKpIPFGBzSEn9j-109" style="edgeStyle=orthogonalEdgeStyle;rounded=0;orthogonalLoop=1;jettySize=auto;html=1;exitX=0.5;exitY=0;exitDx=0;exitDy=0;entryX=0.5;entryY=1;entryDx=0;entryDy=0;endArrow=open;endFill=0;endSize=12;" edge="1" parent="1" source="_RIdNQpKpIPFGBzSEn9j-43" target="_RIdNQpKpIPFGBzSEn9j-29">
          <mxGeometry relative="1" as="geometry" />
        </mxCell>
        <mxCell id="_RIdNQpKpIPFGBzSEn9j-122" style="rounded=0;orthogonalLoop=1;jettySize=auto;html=1;exitX=0.5;exitY=1;exitDx=0;exitDy=0;endArrow=none;endFill=0;" edge="1" parent="1" source="_RIdNQpKpIPFGBzSEn9j-43">
          <mxGeometry relative="1" as="geometry">
            <mxPoint x="648" y="833.37" as="targetPoint" />
            <Array as="points">
              <mxPoint x="140" y="833" />
            </Array>
          </mxGeometry>
        </mxCell>
        <mxCell id="_RIdNQpKpIPFGBzSEn9j-43" value="&lt;p style=&quot;margin:0px;margin-top:4px;text-align:center;&quot;&gt;&lt;b&gt;Water&lt;/b&gt;&lt;br&gt;&lt;/p&gt;&lt;hr size=&quot;1&quot;&gt;&lt;div&gt;-- Puddle of Water class&lt;br&gt;&lt;/div&gt;" style="verticalAlign=top;align=left;overflow=fill;fontSize=12;fontFamily=Helvetica;html=1;whiteSpace=wrap;" vertex="1" parent="1">
          <mxGeometry x="60" y="753.37" width="160" height="60" as="geometry" />
        </mxCell>
        <mxCell id="_RIdNQpKpIPFGBzSEn9j-108" style="edgeStyle=orthogonalEdgeStyle;rounded=0;orthogonalLoop=1;jettySize=auto;html=1;exitX=0.5;exitY=0;exitDx=0;exitDy=0;entryX=0.5;entryY=1;entryDx=0;entryDy=0;endArrow=open;endFill=0;endSize=12;" edge="1" parent="1" source="_RIdNQpKpIPFGBzSEn9j-44" target="_RIdNQpKpIPFGBzSEn9j-30">
          <mxGeometry relative="1" as="geometry" />
        </mxCell>
        <mxCell id="_RIdNQpKpIPFGBzSEn9j-120" style="edgeStyle=orthogonalEdgeStyle;rounded=0;orthogonalLoop=1;jettySize=auto;html=1;exitX=0.5;exitY=1;exitDx=0;exitDy=0;entryX=0.5;entryY=1;entryDx=0;entryDy=0;endSize=12;endArrow=block;endFill=0;" edge="1" parent="1" source="_RIdNQpKpIPFGBzSEn9j-44" target="_RIdNQpKpIPFGBzSEn9j-119">
          <mxGeometry relative="1" as="geometry" />
        </mxCell>
        <mxCell id="_RIdNQpKpIPFGBzSEn9j-44" value="&lt;p style=&quot;margin:0px;margin-top:4px;text-align:center;&quot;&gt;&lt;b&gt;Wind&lt;/b&gt;&lt;br&gt;&lt;/p&gt;&lt;hr size=&quot;1&quot;&gt;&lt;div&gt;-- Gust of Wind environment class&lt;br&gt;&lt;/div&gt;" style="verticalAlign=top;align=left;overflow=fill;fontSize=12;fontFamily=Helvetica;html=1;whiteSpace=wrap;" vertex="1" parent="1">
          <mxGeometry x="420" y="753.37" width="160" height="60" as="geometry" />
        </mxCell>
        <mxCell id="_RIdNQpKpIPFGBzSEn9j-121" style="rounded=0;orthogonalLoop=1;jettySize=auto;html=1;exitX=0.5;exitY=1;exitDx=0;exitDy=0;endArrow=none;endFill=0;" edge="1" parent="1" source="_RIdNQpKpIPFGBzSEn9j-45">
          <mxGeometry relative="1" as="geometry">
            <mxPoint x="648" y="833.37" as="targetPoint" />
            <Array as="points">
              <mxPoint x="318" y="833.37" />
            </Array>
          </mxGeometry>
        </mxCell>
        <mxCell id="_RIdNQpKpIPFGBzSEn9j-45" value="&lt;p style=&quot;margin:0px;margin-top:4px;text-align:center;&quot;&gt;&lt;b&gt;Graveyard&lt;/b&gt;&lt;br&gt;&lt;/p&gt;&lt;hr size=&quot;1&quot;&gt;&lt;div&gt;-- Graveyard environment class&lt;br&gt;&lt;/div&gt;" style="verticalAlign=top;align=left;overflow=fill;fontSize=12;fontFamily=Helvetica;html=1;whiteSpace=wrap;" vertex="1" parent="1">
          <mxGeometry x="238.2" y="753.37" width="160" height="60" as="geometry" />
        </mxCell>
        <mxCell id="_RIdNQpKpIPFGBzSEn9j-79" value="" style="group" vertex="1" connectable="0" parent="1">
          <mxGeometry x="227" y="230" width="180" height="115" as="geometry" />
        </mxCell>
        <mxCell id="_RIdNQpKpIPFGBzSEn9j-76" value="" style="shape=folder;fontStyle=1;spacingTop=10;tabWidth=65;tabHeight=20;tabPosition=left;html=1;whiteSpace=wrap;" vertex="1" parent="_RIdNQpKpIPFGBzSEn9j-79">
          <mxGeometry y="5" width="180" height="110" as="geometry" />
        </mxCell>
        <mxCell id="_RIdNQpKpIPFGBzSEn9j-77" value="actors" style="text;html=1;strokeColor=none;fillColor=none;align=center;verticalAlign=middle;whiteSpace=wrap;rounded=0;" vertex="1" parent="_RIdNQpKpIPFGBzSEn9j-79">
          <mxGeometry x="4" width="60" height="30" as="geometry" />
        </mxCell>
        <mxCell id="_RIdNQpKpIPFGBzSEn9j-4" value="&lt;p style=&quot;margin:0px;margin-top:4px;text-align:center;&quot;&gt;&lt;b&gt;&amp;lt;&amp;lt;abstract&amp;gt;&amp;gt;&lt;/b&gt;&lt;/p&gt;&lt;p style=&quot;margin:0px;margin-top:4px;text-align:center;&quot;&gt;&lt;b&gt;Actor&lt;br&gt;&lt;/b&gt;&lt;/p&gt;&lt;hr size=&quot;1&quot;&gt;" style="verticalAlign=top;align=left;overflow=fill;fontSize=12;fontFamily=Helvetica;html=1;whiteSpace=wrap;" vertex="1" parent="_RIdNQpKpIPFGBzSEn9j-79">
          <mxGeometry x="20" y="43" width="140" height="60" as="geometry" />
        </mxCell>
        <mxCell id="_RIdNQpKpIPFGBzSEn9j-20" value="" style="endArrow=block;endSize=12;endFill=0;html=1;rounded=0;exitX=0.5;exitY=0;exitDx=0;exitDy=0;entryX=0.5;entryY=1;entryDx=0;entryDy=0;" edge="1" parent="1" source="_RIdNQpKpIPFGBzSEn9j-21" target="_RIdNQpKpIPFGBzSEn9j-4">
          <mxGeometry width="160" relative="1" as="geometry">
            <mxPoint x="506.75" y="457" as="sourcePoint" />
            <mxPoint x="507" y="380" as="targetPoint" />
          </mxGeometry>
        </mxCell>
        <mxCell id="_RIdNQpKpIPFGBzSEn9j-89" style="rounded=0;orthogonalLoop=1;jettySize=auto;html=1;exitX=0.25;exitY=0;exitDx=0;exitDy=0;entryX=0.5;entryY=1;entryDx=0;entryDy=0;elbow=vertical;endArrow=open;endFill=0;endSize=12;" edge="1" parent="1" source="_RIdNQpKpIPFGBzSEn9j-3" target="_RIdNQpKpIPFGBzSEn9j-86">
          <mxGeometry relative="1" as="geometry">
            <mxPoint x="128" y="570.0000000000001" as="targetPoint" />
            <Array as="points" />
          </mxGeometry>
        </mxCell>
        <mxCell id="_RIdNQpKpIPFGBzSEn9j-95" value="" style="endArrow=open;endSize=16;endFill=0;html=1;rounded=0;exitX=0.5;exitY=0;exitDx=0;exitDy=0;entryX=0.5;entryY=1;entryDx=0;entryDy=0;" edge="1" parent="1" source="_RIdNQpKpIPFGBzSEn9j-45" target="_RIdNQpKpIPFGBzSEn9j-3">
          <mxGeometry width="160" relative="1" as="geometry">
            <mxPoint x="315.8" y="754.37" as="sourcePoint" />
            <mxPoint x="315.8" y="673.37" as="targetPoint" />
          </mxGeometry>
        </mxCell>
        <mxCell id="_RIdNQpKpIPFGBzSEn9j-100" value="1" style="text;html=1;strokeColor=none;fillColor=none;align=center;verticalAlign=middle;whiteSpace=wrap;rounded=0;" vertex="1" parent="1">
          <mxGeometry x="119" y="733.37" width="18" height="20" as="geometry" />
        </mxCell>
        <mxCell id="_RIdNQpKpIPFGBzSEn9j-105" value="1" style="text;html=1;strokeColor=none;fillColor=none;align=center;verticalAlign=middle;whiteSpace=wrap;rounded=0;" vertex="1" parent="1">
          <mxGeometry x="298" y="736" width="12" height="17.87" as="geometry" />
        </mxCell>
        <mxCell id="_RIdNQpKpIPFGBzSEn9j-106" value="1" style="text;html=1;strokeColor=none;fillColor=none;align=center;verticalAlign=middle;whiteSpace=wrap;rounded=0;" vertex="1" parent="1">
          <mxGeometry x="457" y="727.87" width="60" height="30" as="geometry" />
        </mxCell>
        <mxCell id="_RIdNQpKpIPFGBzSEn9j-107" value="1" style="text;html=1;strokeColor=none;fillColor=none;align=center;verticalAlign=middle;whiteSpace=wrap;rounded=0;" vertex="1" parent="1">
          <mxGeometry x="273" y="688.37" width="60" height="30" as="geometry" />
        </mxCell>
        <mxCell id="_RIdNQpKpIPFGBzSEn9j-110" value="1" style="text;html=1;strokeColor=none;fillColor=none;align=center;verticalAlign=middle;whiteSpace=wrap;rounded=0;" vertex="1" parent="1">
          <mxGeometry x="119" y="693.37" width="18" height="20" as="geometry" />
        </mxCell>
        <mxCell id="_RIdNQpKpIPFGBzSEn9j-111" value="1" style="text;html=1;strokeColor=none;fillColor=none;align=center;verticalAlign=middle;whiteSpace=wrap;rounded=0;" vertex="1" parent="1">
          <mxGeometry x="478" y="693.37" width="18" height="20" as="geometry" />
        </mxCell>
        <mxCell id="_RIdNQpKpIPFGBzSEn9j-112" value="spawns" style="text;html=1;strokeColor=none;fillColor=none;align=center;verticalAlign=middle;whiteSpace=wrap;rounded=0;" vertex="1" parent="1">
          <mxGeometry x="447" y="708.37" width="60" height="30" as="geometry" />
        </mxCell>
        <mxCell id="_RIdNQpKpIPFGBzSEn9j-113" value="spawns" style="text;html=1;strokeColor=none;fillColor=none;align=center;verticalAlign=middle;whiteSpace=wrap;rounded=0;" vertex="1" parent="1">
          <mxGeometry x="271" y="716" width="42" height="18.37" as="geometry" />
        </mxCell>
        <mxCell id="_RIdNQpKpIPFGBzSEn9j-115" value="spawns" style="text;html=1;strokeColor=none;fillColor=none;align=center;verticalAlign=middle;whiteSpace=wrap;rounded=0;" vertex="1" parent="1">
          <mxGeometry x="86" y="706.37" width="60" height="30" as="geometry" />
        </mxCell>
        <mxCell id="_RIdNQpKpIPFGBzSEn9j-123" style="rounded=0;orthogonalLoop=1;jettySize=auto;html=1;exitX=0.5;exitY=0;exitDx=0;exitDy=0;entryX=0.5;entryY=1;entryDx=0;entryDy=0;endArrow=block;endFill=0;endSize=12;" edge="1" parent="1" source="_RIdNQpKpIPFGBzSEn9j-119" target="_RIdNQpKpIPFGBzSEn9j-84">
          <mxGeometry relative="1" as="geometry">
            <Array as="points" />
          </mxGeometry>
        </mxCell>
        <mxCell id="_RIdNQpKpIPFGBzSEn9j-119" value="&lt;p style=&quot;margin:0px;margin-top:4px;text-align:center;&quot;&gt;&lt;b&gt;&amp;lt;&amp;lt;abstract&amp;gt;&amp;gt;&lt;/b&gt;&lt;/p&gt;&lt;p style=&quot;margin:0px;margin-top:4px;text-align:center;&quot;&gt;&lt;b&gt;GroundSpawner&lt;br&gt;&lt;/b&gt;&lt;/p&gt;&lt;hr size=&quot;1&quot;&gt;&lt;div&gt;-- base class for grounds which spawn enemies&lt;br&gt;&lt;/div&gt;" style="verticalAlign=top;align=left;overflow=fill;fontSize=12;fontFamily=Helvetica;html=1;whiteSpace=wrap;" vertex="1" parent="1">
          <mxGeometry x="618" y="602.37" width="160" height="91" as="geometry" />
        </mxCell>
        <mxCell id="_RIdNQpKpIPFGBzSEn9j-125" value="&lt;p style=&quot;margin:0px;margin-top:4px;text-align:center;&quot;&gt;&lt;b&gt;GrossmesserAttack&lt;/b&gt;&lt;br&gt;&lt;/p&gt;&lt;hr size=&quot;1&quot;&gt;-- Grossmesser special attack class" style="verticalAlign=top;align=left;overflow=fill;fontSize=12;fontFamily=Helvetica;html=1;whiteSpace=wrap;" vertex="1" parent="1">
          <mxGeometry x="730" y="439" width="160" height="85.13" as="geometry" />
        </mxCell>
        <mxCell id="_RIdNQpKpIPFGBzSEn9j-69" value="`" style="shape=folder;fontStyle=1;spacingTop=10;tabWidth=65;tabHeight=20;tabPosition=left;html=1;whiteSpace=wrap;" vertex="1" parent="1">
          <mxGeometry x="40" y="200" width="180" height="150" as="geometry" />
        </mxCell>
        <mxCell id="_RIdNQpKpIPFGBzSEn9j-70" value="weapons&lt;span style=&quot;white-space: pre;&quot;&gt;	&lt;/span&gt;" style="text;html=1;strokeColor=none;fillColor=none;align=center;verticalAlign=middle;whiteSpace=wrap;rounded=0;" vertex="1" parent="1">
          <mxGeometry x="45" y="187.79000000000002" width="60" height="44.21052631578947" as="geometry" />
        </mxCell>
        <mxCell id="_RIdNQpKpIPFGBzSEn9j-72" value="&lt;p style=&quot;margin:0px;margin-top:4px;text-align:center;&quot;&gt;&lt;b&gt;&amp;lt;&amp;lt;abstract&amp;gt;&amp;gt;&lt;/b&gt;&lt;/p&gt;&lt;p style=&quot;margin:0px;margin-top:4px;text-align:center;&quot;&gt;&lt;b&gt;WeaponItem&lt;/b&gt;&lt;br&gt;&lt;/p&gt;&lt;hr size=&quot;1&quot;&gt;" style="verticalAlign=top;align=left;overflow=fill;fontSize=12;fontFamily=Helvetica;html=1;whiteSpace=wrap;" vertex="1" parent="1">
          <mxGeometry x="60" y="233.99631578947367" width="140" height="88.42105263157895" as="geometry" />
        </mxCell>
        <mxCell id="_RIdNQpKpIPFGBzSEn9j-88" style="rounded=0;orthogonalLoop=1;jettySize=auto;html=1;exitX=0.5;exitY=0;exitDx=0;exitDy=0;entryX=0.5;entryY=1;entryDx=0;entryDy=0;endArrow=block;endFill=0;endSize=12;" edge="1" parent="1" source="_RIdNQpKpIPFGBzSEn9j-86" target="_RIdNQpKpIPFGBzSEn9j-72">
          <mxGeometry relative="1" as="geometry" />
        </mxCell>
        <mxCell id="_RIdNQpKpIPFGBzSEn9j-86" value="&lt;p style=&quot;margin:0px;margin-top:4px;text-align:center;&quot;&gt;&lt;b&gt;Grossmesser&lt;/b&gt;&lt;br&gt;&lt;/p&gt;&lt;hr size=&quot;1&quot;&gt;&lt;div&gt;-- Grossmesser weapon class&lt;br&gt;&lt;/div&gt;" style="verticalAlign=top;align=left;overflow=fill;fontSize=12;fontFamily=Helvetica;html=1;whiteSpace=wrap;" vertex="1" parent="1">
          <mxGeometry x="50" y="433" width="160" height="85.26" as="geometry" />
        </mxCell>
        <mxCell id="_RIdNQpKpIPFGBzSEn9j-93" value="1" style="text;html=1;strokeColor=none;fillColor=none;align=center;verticalAlign=middle;whiteSpace=wrap;rounded=0;" vertex="1" parent="1">
          <mxGeometry x="113" y="324" width="60" height="30" as="geometry" />
        </mxCell>
        <mxCell id="_RIdNQpKpIPFGBzSEn9j-124" value="&lt;p style=&quot;margin:0px;margin-top:4px;text-align:center;&quot;&gt;&lt;b&gt;AttackAction&lt;br&gt;&lt;/b&gt;&lt;/p&gt;&lt;hr size=&quot;1&quot;&gt;" style="verticalAlign=top;align=left;overflow=fill;fontSize=12;fontFamily=Helvetica;html=1;whiteSpace=wrap;" vertex="1" parent="1">
          <mxGeometry x="910" y="398" width="140" height="60" as="geometry" />
        </mxCell>
        <mxCell id="_RIdNQpKpIPFGBzSEn9j-129" value="" style="endArrow=block;endSize=12;endFill=0;html=1;rounded=0;exitX=1;exitY=0.5;exitDx=0;exitDy=0;entryX=0.5;entryY=1;entryDx=0;entryDy=0;" edge="1" parent="1" source="_RIdNQpKpIPFGBzSEn9j-125" target="_RIdNQpKpIPFGBzSEn9j-124">
          <mxGeometry width="160" relative="1" as="geometry">
            <mxPoint x="831" y="532.24" as="sourcePoint" />
            <mxPoint x="830" y="368.24" as="targetPoint" />
            <Array as="points">
              <mxPoint x="980" y="490" />
            </Array>
          </mxGeometry>
        </mxCell>
        <mxCell id="_RIdNQpKpIPFGBzSEn9j-133" style="rounded=0;orthogonalLoop=1;jettySize=auto;html=1;exitX=1;exitY=0.75;exitDx=0;exitDy=0;entryX=0;entryY=0.5;entryDx=0;entryDy=0;elbow=vertical;endArrow=open;endFill=0;endSize=12;" edge="1" parent="1" source="_RIdNQpKpIPFGBzSEn9j-86" target="_RIdNQpKpIPFGBzSEn9j-125">
          <mxGeometry relative="1" as="geometry">
            <mxPoint x="311" y="642" as="sourcePoint" />
            <mxPoint x="163" y="527" as="targetPoint" />
            <Array as="points">
              <mxPoint x="358" y="560" />
              <mxPoint x="570" y="560" />
            </Array>
          </mxGeometry>
        </mxCell>
        <mxCell id="_RIdNQpKpIPFGBzSEn9j-137" value="1" style="text;html=1;strokeColor=none;fillColor=none;align=center;verticalAlign=middle;whiteSpace=wrap;rounded=0;" vertex="1" parent="1">
          <mxGeometry x="210" y="480" width="12" height="17.87" as="geometry" />
        </mxCell>
        <mxCell id="_RIdNQpKpIPFGBzSEn9j-138" value="1" style="text;html=1;strokeColor=none;fillColor=none;align=center;verticalAlign=middle;whiteSpace=wrap;rounded=0;" vertex="1" parent="1">
          <mxGeometry x="718" y="458.00000000000006" width="12" height="17.87" as="geometry" />
        </mxCell>
        <mxCell id="_RIdNQpKpIPFGBzSEn9j-139" value="enables" style="text;html=1;strokeColor=none;fillColor=none;align=center;verticalAlign=middle;whiteSpace=wrap;rounded=0;" vertex="1" parent="1">
          <mxGeometry x="500" y="540" width="42" height="18.37" as="geometry" />
        </mxCell>
        <mxCell id="_RIdNQpKpIPFGBzSEn9j-142" value="&lt;p style=&quot;margin:0px;margin-top:4px;text-align:center;&quot;&gt;&lt;b&gt;&amp;lt;&amp;lt;abstract&amp;gt;&amp;gt;&lt;/b&gt;&lt;/p&gt;&lt;p style=&quot;margin:0px;margin-top:4px;text-align:center;&quot;&gt;&lt;b&gt;Action&lt;br&gt;&lt;/b&gt;&lt;/p&gt;&lt;hr size=&quot;1&quot;&gt;" style="verticalAlign=top;align=left;overflow=fill;fontSize=12;fontFamily=Helvetica;html=1;whiteSpace=wrap;" vertex="1" parent="1">
          <mxGeometry x="820" y="714.93" width="140" height="60" as="geometry" />
        </mxCell>
        <mxCell id="_RIdNQpKpIPFGBzSEn9j-145" value="&lt;p style=&quot;margin:0px;margin-top:4px;text-align:center;&quot;&gt;&lt;b&gt;PileOfBones&lt;/b&gt;&lt;br&gt;&lt;/p&gt;&lt;hr size=&quot;1&quot;&gt;-- Heavy Skeletal Swordsman enemy special skill class" style="verticalAlign=top;align=left;overflow=fill;fontSize=12;fontFamily=Helvetica;html=1;whiteSpace=wrap;" vertex="1" parent="1">
          <mxGeometry x="810" y="830" width="160" height="85.13" as="geometry" />
        </mxCell>
        <mxCell id="_RIdNQpKpIPFGBzSEn9j-146" style="rounded=0;orthogonalLoop=1;jettySize=auto;html=1;exitX=0.75;exitY=1;exitDx=0;exitDy=0;entryX=0;entryY=0.5;entryDx=0;entryDy=0;elbow=vertical;endArrow=open;endFill=0;endSize=12;" edge="1" parent="1" source="_RIdNQpKpIPFGBzSEn9j-3" target="_RIdNQpKpIPFGBzSEn9j-145">
          <mxGeometry relative="1" as="geometry">
            <mxPoint x="288" y="643" as="sourcePoint" />
            <mxPoint x="140" y="528" as="targetPoint" />
            <Array as="points">
              <mxPoint x="650" y="750" />
            </Array>
          </mxGeometry>
        </mxCell>
        <mxCell id="_RIdNQpKpIPFGBzSEn9j-148" value="" style="endArrow=block;endSize=12;endFill=0;html=1;rounded=0;exitX=0.5;exitY=0;exitDx=0;exitDy=0;entryX=0.5;entryY=1;entryDx=0;entryDy=0;" edge="1" parent="1" source="_RIdNQpKpIPFGBzSEn9j-145" target="_RIdNQpKpIPFGBzSEn9j-142">
          <mxGeometry width="160" relative="1" as="geometry">
            <mxPoint x="910" y="830" as="sourcePoint" />
            <mxPoint x="910" y="775" as="targetPoint" />
          </mxGeometry>
        </mxCell>
        <mxCell id="_RIdNQpKpIPFGBzSEn9j-149" value="1" style="text;html=1;strokeColor=none;fillColor=none;align=center;verticalAlign=middle;whiteSpace=wrap;rounded=0;" vertex="1" parent="1">
          <mxGeometry x="361" y="700.5" width="12" height="17.87" as="geometry" />
        </mxCell>
        <mxCell id="_RIdNQpKpIPFGBzSEn9j-150" value="1" style="text;html=1;strokeColor=none;fillColor=none;align=center;verticalAlign=middle;whiteSpace=wrap;rounded=0;" vertex="1" parent="1">
          <mxGeometry x="790" y="840" width="12" height="17.87" as="geometry" />
        </mxCell>
        <mxCell id="_RIdNQpKpIPFGBzSEn9j-151" value="uses" style="text;html=1;strokeColor=none;fillColor=none;align=center;verticalAlign=middle;whiteSpace=wrap;rounded=0;" vertex="1" parent="1">
          <mxGeometry x="610" y="727.87" width="42" height="18.37" as="geometry" />
        </mxCell>
        <mxCell id="_RIdNQpKpIPFGBzSEn9j-154" style="rounded=0;orthogonalLoop=1;jettySize=auto;html=1;exitX=0.5;exitY=0;exitDx=0;exitDy=0;endArrow=none;endFill=0;" edge="1" parent="1" source="_RIdNQpKpIPFGBzSEn9j-153">
          <mxGeometry relative="1" as="geometry">
            <mxPoint x="980" y="490" as="targetPoint" />
          </mxGeometry>
        </mxCell>
        <mxCell id="_RIdNQpKpIPFGBzSEn9j-153" value="&lt;p style=&quot;margin:0px;margin-top:4px;text-align:center;&quot;&gt;&lt;b&gt;SlamAttack&lt;/b&gt;&lt;br&gt;&lt;/p&gt;&lt;hr size=&quot;1&quot;&gt;-- Giant Crab enemy special attack class" style="verticalAlign=top;align=left;overflow=fill;fontSize=12;fontFamily=Helvetica;html=1;whiteSpace=wrap;" vertex="1" parent="1">
          <mxGeometry x="990" y="517.24" width="160" height="85.13" as="geometry" />
        </mxCell>
        <mxCell id="_RIdNQpKpIPFGBzSEn9j-156" value="1" style="text;html=1;strokeColor=none;fillColor=none;align=center;verticalAlign=middle;whiteSpace=wrap;rounded=0;" vertex="1" parent="1">
          <mxGeometry x="958" y="584.5000000000001" width="12" height="17.87" as="geometry" />
        </mxCell>
        <mxCell id="_RIdNQpKpIPFGBzSEn9j-157" value="1" style="text;html=1;strokeColor=none;fillColor=none;align=center;verticalAlign=middle;whiteSpace=wrap;rounded=0;" vertex="1" parent="1">
          <mxGeometry x="161" y="615.5000000000001" width="12" height="17.87" as="geometry" />
        </mxCell>
        <mxCell id="_RIdNQpKpIPFGBzSEn9j-162" value="uses" style="text;html=1;strokeColor=none;fillColor=none;align=center;verticalAlign=middle;whiteSpace=wrap;rounded=0;" vertex="1" parent="1">
          <mxGeometry x="542" y="581" width="42" height="18.37" as="geometry" />
        </mxCell>
      </root>
    </mxGraphModel>
  </diagram>
</mxfile>
